<mxfile host="app.diagrams.net" modified="2022-12-13T17:07:53.513Z" agent="5.0 (X11; Linux x86_64) AppleWebKit/537.36 (KHTML, like Gecko) Chrome/108.0.0.0 Safari/537.36" version="20.6.2" etag="2Nti9hWOj30ZxLPxnGQB" type="github">
  <diagram id="snm-ozk5-ZyP8jEwZ7S-" name="Страница 1">
    <mxGraphModel dx="3180" dy="1546" grid="1" gridSize="10" guides="1" tooltips="1" connect="1" arrows="1" fold="1" page="1" pageScale="1" pageWidth="827" pageHeight="1169" math="0" shadow="0">
      <root>
        <mxCell id="0" />
        <mxCell id="1" parent="0" />
        <mxCell id="Q3e9H_ORcCzGhXoD7uXu-1" value="Студия разработки ПО и дизайна" style="rounded=0;whiteSpace=wrap;html=1;" vertex="1" parent="1">
          <mxGeometry x="1364" y="453.75" width="200" height="110" as="geometry" />
        </mxCell>
        <mxCell id="Q3e9H_ORcCzGhXoD7uXu-2" value="" style="endArrow=classic;html=1;rounded=0;entryX=0.25;entryY=0;entryDx=0;entryDy=0;" edge="1" parent="1" target="Q3e9H_ORcCzGhXoD7uXu-1">
          <mxGeometry width="50" height="50" relative="1" as="geometry">
            <mxPoint x="1414" y="363.75" as="sourcePoint" />
            <mxPoint x="1484" y="543.75" as="targetPoint" />
          </mxGeometry>
        </mxCell>
        <mxCell id="Q3e9H_ORcCzGhXoD7uXu-3" value="Законы" style="edgeLabel;html=1;align=center;verticalAlign=middle;resizable=0;points=[];" vertex="1" connectable="0" parent="Q3e9H_ORcCzGhXoD7uXu-2">
          <mxGeometry x="-0.4" y="1" relative="1" as="geometry">
            <mxPoint y="-10" as="offset" />
          </mxGeometry>
        </mxCell>
        <mxCell id="Q3e9H_ORcCzGhXoD7uXu-4" value="" style="endArrow=classic;html=1;rounded=0;entryX=0.5;entryY=0;entryDx=0;entryDy=0;" edge="1" parent="1" target="Q3e9H_ORcCzGhXoD7uXu-1">
          <mxGeometry width="50" height="50" relative="1" as="geometry">
            <mxPoint x="1464" y="363.75" as="sourcePoint" />
            <mxPoint x="1484" y="543.75" as="targetPoint" />
          </mxGeometry>
        </mxCell>
        <mxCell id="Q3e9H_ORcCzGhXoD7uXu-5" value="Методологии&lt;br&gt;управления" style="edgeLabel;html=1;align=center;verticalAlign=middle;resizable=0;points=[];" vertex="1" connectable="0" parent="Q3e9H_ORcCzGhXoD7uXu-4">
          <mxGeometry x="0.38" y="-1" relative="1" as="geometry">
            <mxPoint x="1" y="-9" as="offset" />
          </mxGeometry>
        </mxCell>
        <mxCell id="Q3e9H_ORcCzGhXoD7uXu-6" value="" style="endArrow=classic;html=1;rounded=0;entryX=0.75;entryY=0;entryDx=0;entryDy=0;" edge="1" parent="1" target="Q3e9H_ORcCzGhXoD7uXu-1">
          <mxGeometry width="50" height="50" relative="1" as="geometry">
            <mxPoint x="1514" y="363.75" as="sourcePoint" />
            <mxPoint x="1584" y="353.75" as="targetPoint" />
          </mxGeometry>
        </mxCell>
        <mxCell id="Q3e9H_ORcCzGhXoD7uXu-7" value="Знания о&lt;br&gt;рынке" style="edgeLabel;html=1;align=center;verticalAlign=middle;resizable=0;points=[];" vertex="1" connectable="0" parent="Q3e9H_ORcCzGhXoD7uXu-6">
          <mxGeometry x="-0.6551" y="1" relative="1" as="geometry">
            <mxPoint y="4" as="offset" />
          </mxGeometry>
        </mxCell>
        <mxCell id="Q3e9H_ORcCzGhXoD7uXu-8" value="" style="endArrow=classic;html=1;rounded=0;entryX=0;entryY=0.25;entryDx=0;entryDy=0;" edge="1" parent="1" target="Q3e9H_ORcCzGhXoD7uXu-1">
          <mxGeometry width="50" height="50" relative="1" as="geometry">
            <mxPoint x="1264" y="481.75" as="sourcePoint" />
            <mxPoint x="1614" y="383.75" as="targetPoint" />
          </mxGeometry>
        </mxCell>
        <mxCell id="Q3e9H_ORcCzGhXoD7uXu-9" value="Деньги" style="edgeLabel;html=1;align=center;verticalAlign=middle;resizable=0;points=[];" vertex="1" connectable="0" parent="Q3e9H_ORcCzGhXoD7uXu-8">
          <mxGeometry x="-0.2177" relative="1" as="geometry">
            <mxPoint as="offset" />
          </mxGeometry>
        </mxCell>
        <mxCell id="Q3e9H_ORcCzGhXoD7uXu-10" value="" style="endArrow=classic;html=1;rounded=0;exitX=1;exitY=0.25;exitDx=0;exitDy=0;" edge="1" parent="1" source="Q3e9H_ORcCzGhXoD7uXu-1">
          <mxGeometry width="50" height="50" relative="1" as="geometry">
            <mxPoint x="1294" y="563.75" as="sourcePoint" />
            <mxPoint x="1644" y="481.75" as="targetPoint" />
          </mxGeometry>
        </mxCell>
        <mxCell id="Q3e9H_ORcCzGhXoD7uXu-11" value="ПО" style="edgeLabel;html=1;align=center;verticalAlign=middle;resizable=0;points=[];" vertex="1" connectable="0" parent="Q3e9H_ORcCzGhXoD7uXu-10">
          <mxGeometry x="0.2298" y="1" relative="1" as="geometry">
            <mxPoint x="-9" y="-7" as="offset" />
          </mxGeometry>
        </mxCell>
        <mxCell id="Q3e9H_ORcCzGhXoD7uXu-12" value="" style="endArrow=classic;html=1;rounded=0;exitX=1;exitY=0.5;exitDx=0;exitDy=0;" edge="1" parent="1" source="Q3e9H_ORcCzGhXoD7uXu-1">
          <mxGeometry width="50" height="50" relative="1" as="geometry">
            <mxPoint x="1474" y="513.75" as="sourcePoint" />
            <mxPoint x="1644" y="508.75" as="targetPoint" />
          </mxGeometry>
        </mxCell>
        <mxCell id="Q3e9H_ORcCzGhXoD7uXu-13" value="Дизайн" style="edgeLabel;html=1;align=center;verticalAlign=middle;resizable=0;points=[];" vertex="1" connectable="0" parent="Q3e9H_ORcCzGhXoD7uXu-12">
          <mxGeometry x="-0.17" y="1" relative="1" as="geometry">
            <mxPoint x="7" y="-7" as="offset" />
          </mxGeometry>
        </mxCell>
        <mxCell id="Q3e9H_ORcCzGhXoD7uXu-14" value="" style="endArrow=classic;html=1;rounded=0;exitX=1;exitY=0.75;exitDx=0;exitDy=0;" edge="1" parent="1" source="Q3e9H_ORcCzGhXoD7uXu-1">
          <mxGeometry width="50" height="50" relative="1" as="geometry">
            <mxPoint x="1494" y="513.75" as="sourcePoint" />
            <mxPoint x="1654" y="536.75" as="targetPoint" />
          </mxGeometry>
        </mxCell>
        <mxCell id="Q3e9H_ORcCzGhXoD7uXu-15" value="Документация" style="edgeLabel;html=1;align=center;verticalAlign=middle;resizable=0;points=[];" vertex="1" connectable="0" parent="Q3e9H_ORcCzGhXoD7uXu-14">
          <mxGeometry x="0.3001" y="-1" relative="1" as="geometry">
            <mxPoint x="-18" y="-11" as="offset" />
          </mxGeometry>
        </mxCell>
        <mxCell id="Q3e9H_ORcCzGhXoD7uXu-16" value="Поиск клиента и продажа" style="rounded=0;whiteSpace=wrap;html=1;" vertex="1" parent="1">
          <mxGeometry x="130" y="270" width="120" height="60" as="geometry" />
        </mxCell>
        <mxCell id="Q3e9H_ORcCzGhXoD7uXu-17" value="Инициализация проекта" style="rounded=0;whiteSpace=wrap;html=1;" vertex="1" parent="1">
          <mxGeometry x="294" y="360" width="120" height="60" as="geometry" />
        </mxCell>
        <mxCell id="Q3e9H_ORcCzGhXoD7uXu-18" value="Разработка дизайна" style="rounded=0;whiteSpace=wrap;html=1;" vertex="1" parent="1">
          <mxGeometry x="470" y="450" width="120" height="60" as="geometry" />
        </mxCell>
        <mxCell id="Q3e9H_ORcCzGhXoD7uXu-19" value="Разработка ПО" style="rounded=0;whiteSpace=wrap;html=1;" vertex="1" parent="1">
          <mxGeometry x="640" y="525" width="120" height="60" as="geometry" />
        </mxCell>
        <mxCell id="Q3e9H_ORcCzGhXoD7uXu-20" value="Сдача проекта" style="rounded=0;whiteSpace=wrap;html=1;" vertex="1" parent="1">
          <mxGeometry x="810" y="610" width="120" height="60" as="geometry" />
        </mxCell>
        <mxCell id="Q3e9H_ORcCzGhXoD7uXu-21" value="Получение фидбэка" style="rounded=0;whiteSpace=wrap;html=1;" vertex="1" parent="1">
          <mxGeometry x="970" y="700" width="120" height="60" as="geometry" />
        </mxCell>
        <mxCell id="Q3e9H_ORcCzGhXoD7uXu-22" value="Ретроспектива" style="rounded=0;whiteSpace=wrap;html=1;" vertex="1" parent="1">
          <mxGeometry x="1121" y="770" width="120" height="60" as="geometry" />
        </mxCell>
        <mxCell id="Q3e9H_ORcCzGhXoD7uXu-30" value="" style="edgeStyle=orthogonalEdgeStyle;rounded=0;orthogonalLoop=1;jettySize=auto;html=1;" edge="1" parent="1" source="Q3e9H_ORcCzGhXoD7uXu-23" target="Q3e9H_ORcCzGhXoD7uXu-24">
          <mxGeometry relative="1" as="geometry" />
        </mxCell>
        <mxCell id="Q3e9H_ORcCzGhXoD7uXu-23" value="Планирование" style="rounded=0;whiteSpace=wrap;html=1;" vertex="1" parent="1">
          <mxGeometry x="1294" y="121.25" width="120" height="60" as="geometry" />
        </mxCell>
        <mxCell id="Q3e9H_ORcCzGhXoD7uXu-26" value="" style="edgeStyle=orthogonalEdgeStyle;rounded=0;orthogonalLoop=1;jettySize=auto;html=1;" edge="1" parent="1" source="Q3e9H_ORcCzGhXoD7uXu-24" target="Q3e9H_ORcCzGhXoD7uXu-25">
          <mxGeometry relative="1" as="geometry" />
        </mxCell>
        <mxCell id="Q3e9H_ORcCzGhXoD7uXu-24" value="Действие" style="rounded=0;whiteSpace=wrap;html=1;" vertex="1" parent="1">
          <mxGeometry x="1494" y="121.25" width="120" height="60" as="geometry" />
        </mxCell>
        <mxCell id="Q3e9H_ORcCzGhXoD7uXu-28" value="" style="edgeStyle=orthogonalEdgeStyle;rounded=0;orthogonalLoop=1;jettySize=auto;html=1;" edge="1" parent="1" source="Q3e9H_ORcCzGhXoD7uXu-25" target="Q3e9H_ORcCzGhXoD7uXu-27">
          <mxGeometry relative="1" as="geometry" />
        </mxCell>
        <mxCell id="Q3e9H_ORcCzGhXoD7uXu-25" value="Проверка" style="whiteSpace=wrap;html=1;rounded=0;" vertex="1" parent="1">
          <mxGeometry x="1494" y="261.25" width="120" height="60" as="geometry" />
        </mxCell>
        <mxCell id="Q3e9H_ORcCzGhXoD7uXu-29" value="" style="edgeStyle=orthogonalEdgeStyle;rounded=0;orthogonalLoop=1;jettySize=auto;html=1;" edge="1" parent="1" source="Q3e9H_ORcCzGhXoD7uXu-27" target="Q3e9H_ORcCzGhXoD7uXu-23">
          <mxGeometry relative="1" as="geometry" />
        </mxCell>
        <mxCell id="Q3e9H_ORcCzGhXoD7uXu-27" value="Выводы и корректирующие действия" style="whiteSpace=wrap;html=1;rounded=0;" vertex="1" parent="1">
          <mxGeometry x="1294" y="261.25" width="120" height="60" as="geometry" />
        </mxCell>
        <mxCell id="Q3e9H_ORcCzGhXoD7uXu-31" value="&lt;font style=&quot;font-size: 36px;&quot;&gt;&lt;b style=&quot;&quot;&gt;PDCA&lt;/b&gt;&lt;/font&gt;" style="text;html=1;align=center;verticalAlign=middle;resizable=0;points=[];autosize=1;strokeColor=none;fillColor=none;" vertex="1" parent="1">
          <mxGeometry x="1384" y="36.25" width="130" height="60" as="geometry" />
        </mxCell>
        <mxCell id="Q3e9H_ORcCzGhXoD7uXu-32" value="" style="endArrow=classic;html=1;rounded=0;fontSize=36;entryX=0;entryY=0.25;entryDx=0;entryDy=0;" edge="1" parent="1" target="Q3e9H_ORcCzGhXoD7uXu-16">
          <mxGeometry width="50" height="50" relative="1" as="geometry">
            <mxPoint x="30" y="285" as="sourcePoint" />
            <mxPoint x="480" y="280" as="targetPoint" />
          </mxGeometry>
        </mxCell>
        <mxCell id="Q3e9H_ORcCzGhXoD7uXu-33" value="&lt;font style=&quot;font-size: 12px;&quot;&gt;Канал сбыта&lt;/font&gt;" style="edgeLabel;html=1;align=center;verticalAlign=middle;resizable=0;points=[];fontSize=36;" vertex="1" connectable="0" parent="Q3e9H_ORcCzGhXoD7uXu-32">
          <mxGeometry x="-0.3709" relative="1" as="geometry">
            <mxPoint x="13" y="-25" as="offset" />
          </mxGeometry>
        </mxCell>
        <mxCell id="Q3e9H_ORcCzGhXoD7uXu-34" value="" style="endArrow=classic;html=1;rounded=0;fontSize=12;entryX=0;entryY=0.75;entryDx=0;entryDy=0;" edge="1" parent="1" target="Q3e9H_ORcCzGhXoD7uXu-16">
          <mxGeometry width="50" height="50" relative="1" as="geometry">
            <mxPoint x="30" y="315" as="sourcePoint" />
            <mxPoint x="480" y="280" as="targetPoint" />
          </mxGeometry>
        </mxCell>
        <mxCell id="Q3e9H_ORcCzGhXoD7uXu-35" value="Портфолио" style="edgeLabel;html=1;align=center;verticalAlign=middle;resizable=0;points=[];fontSize=12;" vertex="1" connectable="0" parent="Q3e9H_ORcCzGhXoD7uXu-34">
          <mxGeometry x="-0.34" relative="1" as="geometry">
            <mxPoint x="13" y="-10" as="offset" />
          </mxGeometry>
        </mxCell>
      </root>
    </mxGraphModel>
  </diagram>
</mxfile>
